<svg width="543" height="112" viewBox="0 0 543 112" fill="none" xmlns="http://www.w3.org/2000/svg">
<path d="M0.875 111V1H22.875V92.25H45.5V111H0.875Z" fill="white"/>
<path d="M51.75 111V1H82C89.9167 1 95.875 3.20833 99.875 7.625C103.875 12 105.875 18.4167 105.875 26.875V78.375C105.875 88.7917 104.042 96.8333 100.375 102.5C96.75 108.167 90.375 111 81.25 111H51.75ZM73.875 91.5625H77.6875C81.7292 91.5625 83.75 89.6042 83.75 85.6875V28.9375C83.75 25.2708 83.25 22.9167 82.25 21.875C81.2917 20.7917 79.3125 20.25 76.3125 20.25H73.875V91.5625Z" fill="white"/>
<path d="M114.875 111V1H144.688C152.688 1 158.5 2.95833 162.125 6.875C165.792 10.75 167.625 17.1667 167.625 26.125V30.9375C167.625 36.1042 166.688 40.2917 164.812 43.5C162.979 46.7083 160.167 48.8125 156.375 49.8125C161.333 51.0625 164.646 54 166.312 58.625C168.021 63.2083 168.875 68.8125 168.875 75.4375C168.875 82.5625 168.208 88.7917 166.875 94.125C165.542 99.4583 163.125 103.604 159.625 106.562C156.125 109.521 151.146 111 144.688 111H114.875ZM136.375 42.4375H140.875C142.917 42.4375 144.229 41.6458 144.812 40.0625C145.396 38.4792 145.688 36.5833 145.688 34.375V23.3125C145.688 19.7708 144.125 18 141 18H136.375V42.4375ZM138.562 91.625C144.271 91.625 147.125 88.9167 147.125 83.5V69.75C147.125 66.625 146.646 64.1667 145.688 62.375C144.771 60.5417 143.021 59.625 140.438 59.625H136.375V91.5C137.292 91.5833 138.021 91.625 138.562 91.625Z" fill="white"/>
<path d="M215.562 111V22.125H202.5V1H250.625V22.125H237.562V111H215.562Z" fill="white"/>
<path d="M282.188 112C273.021 112 266.271 109.438 261.938 104.312C257.604 99.1458 255.438 91.5625 255.438 81.5625V1H276.812V80.6875C276.812 82.5208 276.917 84.2917 277.125 86C277.333 87.6667 277.812 89.0417 278.562 90.125C279.312 91.2083 280.521 91.75 282.188 91.75C283.896 91.75 285.125 91.2292 285.875 90.1875C286.625 89.1042 287.083 87.7083 287.25 86C287.458 84.2917 287.562 82.5208 287.562 80.6875V1H308.938V81.5625C308.938 91.5625 306.771 99.1458 302.438 104.312C298.104 109.438 291.354 112 282.188 112Z" fill="white"/>
<path d="M326.812 111V22.125H313.75V1H361.875V22.125H348.812V111H326.812Z" fill="white"/>
<path d="M394.25 112C385.458 112 378.729 109.354 374.062 104.062C369.438 98.7292 367.125 91.0417 367.125 81V28.75C367.125 19.3333 369.417 12.1875 374 7.3125C378.625 2.4375 385.375 0 394.25 0C403.125 0 409.854 2.4375 414.438 7.3125C419.062 12.1875 421.375 19.3333 421.375 28.75V81C421.375 91.0417 419.042 98.7292 414.375 104.062C409.75 109.354 403.042 112 394.25 112ZM394.438 91.75C397.771 91.75 399.438 88.5208 399.438 82.0625V28.375C399.438 22.9583 397.812 20.25 394.562 20.25C390.896 20.25 389.062 23.0208 389.062 28.5625V82.1875C389.062 85.6042 389.479 88.0625 390.312 89.5625C391.146 91.0208 392.521 91.75 394.438 91.75Z" fill="white"/>
<path d="M430.25 111V1H464C469.625 1 473.875 2.29167 476.75 4.875C479.625 7.41667 481.542 11 482.5 15.625C483.5 20.2083 484 25.6042 484 31.8125C484 37.8125 483.229 42.6042 481.688 46.1875C480.188 49.7708 477.333 52.25 473.125 53.625C476.583 54.3333 479 56.0625 480.375 58.8125C481.792 61.5208 482.5 65.0417 482.5 69.375V111H460.812V67.9375C460.812 64.7292 460.146 62.75 458.812 62C457.521 61.2083 455.417 60.8125 452.5 60.8125V111H430.25ZM452.625 41.75H457.938C460.979 41.75 462.5 38.4375 462.5 31.8125C462.5 27.5208 462.167 24.7083 461.5 23.375C460.833 22.0417 459.583 21.375 457.75 21.375H452.625V41.75Z" fill="white"/>
<path d="M517.375 112C507.333 112 500.083 109.5 495.625 104.5C491.208 99.5 489 91.5417 489 80.625V69.875H510.75V83.625C510.75 86.1667 511.125 88.1667 511.875 89.625C512.667 91.0417 514.021 91.75 515.938 91.75C517.938 91.75 519.312 91.1667 520.062 90C520.854 88.8333 521.25 86.9167 521.25 84.25C521.25 80.875 520.917 78.0625 520.25 75.8125C519.583 73.5208 518.417 71.3542 516.75 69.3125C515.125 67.2292 512.854 64.8125 509.938 62.0625L500.062 52.6875C492.688 45.7292 489 37.7708 489 28.8125C489 19.4375 491.167 12.2917 495.5 7.375C499.875 2.45833 506.188 0 514.438 0C524.521 0 531.667 2.6875 535.875 8.0625C540.125 13.4375 542.25 21.6042 542.25 32.5625H519.875V25C519.875 23.5 519.438 22.3333 518.562 21.5C517.729 20.6667 516.583 20.25 515.125 20.25C513.375 20.25 512.083 20.75 511.25 21.75C510.458 22.7083 510.062 23.9583 510.062 25.5C510.062 27.0417 510.479 28.7083 511.312 30.5C512.146 32.2917 513.792 34.3542 516.25 36.6875L528.938 48.875C531.479 51.2917 533.812 53.8542 535.938 56.5625C538.062 59.2292 539.771 62.3542 541.062 65.9375C542.354 69.4792 543 73.8125 543 78.9375C543 89.2708 541.083 97.375 537.25 103.25C533.458 109.083 526.833 112 517.375 112Z" fill="white"/>
</svg>
